{
  "accessors": [
    {
      "bufferView": 2,
      "componentType": 5126,
      "count": 4699,
      "max": [
        42.537147521972656,
        158.63255310058594,
        59.25297164916992
      ],
      "min": [
        -42.537147521972656,
        -50.70183563232422,
        -68.27732849121094
      ],
      "type": "VEC3"
    },
    {
      "bufferView": 2,
      "byteOffset": 56388,
      "componentType": 5126,
      "count": 4699,
      "max": [
        1.0,
        0.9999942183494568,
        0.9999960660934448
      ],
      "min": [
        -1.0,
        -1.0,
        -0.9997676014900208
      ],
      "type": "VEC3"
    },
    {
      "bufferView": 3,
      "componentType": 5126,
      "count": 4699,
      "max": [
        1.0,
        1.0,
        1.0,
        1.0
      ],
      "min": [
        -1.0,
        -0.9999999403953552,
        -1.0,
        1.0
      ],
      "type": "VEC4"
    },
    {
      "bufferView": 1,
      "componentType": 5126,
      "count": 4699,
      "max": [
        0.9966296553611755,
        0.9926848411560059
      ],
      "min": [
        0.006378188729286194,
        0.00818884652107954
      ],
      "type": "VEC2"
    },
    {
      "bufferView": 0,
      "componentType": 5125,
      "count": 20640,
      "type": "SCALAR"
    }
  ],
  "asset": {
    "extras": {
      "author": "blkelly (https://sketchfab.com/blkelly)",
      "license": "CC-BY-4.0 (http://creativecommons.org/licenses/by/4.0/)",
      "source": "https://sketchfab.com/3d-models/cute-toaster-9f6d03cf29f245ad97c51a56e9b1ca90",
      "title": "Cute Toaster"
    },
    "generator": "Sketchfab-12.65.0",
    "version": "2.0"
  },
  "bufferViews": [
    {
      "buffer": 0,
      "byteLength": 82560,
      "name": "floatBufferViews",
      "target": 34963
    },
    {
      "buffer": 0,
      "byteLength": 37592,
      "byteOffset": 82560,
      "byteStride": 8,
      "name": "floatBufferViews",
      "target": 34962
    },
    {
      "buffer": 0,
      "byteLength": 112776,
      "byteOffset": 120152,
      "byteStride": 12,
      "name": "floatBufferViews",
      "target": 34962
    },
    {
      "buffer": 0,
      "byteLength": 75184,
      "byteOffset": 232928,
      "byteStride": 16,
      "name": "floatBufferViews",
      "target": 34962
    }
  ],
  "buffers": [
    {
      "byteLength": 308112,
      "uri": "scene.bin"
    }
  ],
  "images": [
    {
      "uri": "textures/phongE5_baseColor.png"
    },
    {
      "uri": "textures/phongE5_metallicRoughness.png"
    },
    {
      "uri": "textures/phongE5_normal.png"
    }
  ],
  "materials": [
    {
      "doubleSided": true,
      "name": "phongE5",
      "normalTexture": {
        "index": 2
      },
      "pbrMetallicRoughness": {
        "baseColorTexture": {
          "index": 0
        },
        "metallicRoughnessTexture": {
          "index": 1
        }
      }
    }
  ],
  "meshes": [
    {
      "name": "polySurface45_phongE5_0",
      "primitives": [
        {
          "attributes": {
            "NORMAL": 1,
            "POSITION": 0,
            "TANGENT": 2,
            "TEXCOORD_0": 3
          },
          "indices": 4,
          "material": 0,
          "mode": 4
        }
      ]
    }
  ],
  "nodes": [
    {
      "children": [
        1
      ],
      "matrix": [
        1.0,
        0.0,
        0.0,
        0.0,
        0.0,
        2.220446049250313e-16,
        -1.0,
        0.0,
        0.0,
        1.0,
        2.220446049250313e-16,
        0.0,
        0.0,
        0.0,
        0.0,
        1.0
      ],
      "name": "Sketchfab_model"
    },
    {
      "children": [
        2
      ],
      "matrix": [
        1.0,
        0.0,
        0.0,
        0.0,
        0.0,
        0.0,
        1.0,
        0.0,
        0.0,
        -1.0,
        0.0,
        0.0,
        0.0,
        0.0,
        0.0,
        1.0
      ],
      "name": "CuteToaster.fbx"
    },
    {
      "children": [
        3
      ],
      "name": "RootNode"
    },
    {
      "children": [
        4
      ],
      "name": "polySurface45"
    },
    {
      "mesh": 0,
      "name": "polySurface45_phongE5_0"
    }
  ],
  "samplers": [
    {
      "magFilter": 9729,
      "minFilter": 9987,
      "wrapS": 10497,
      "wrapT": 10497
    }
  ],
  "scene": 0,
  "scenes": [
    {
      "name": "Sketchfab_Scene",
      "nodes": [
        0
      ]
    }
  ],
  "textures": [
    {
      "sampler": 0,
      "source": 0
    },
    {
      "sampler": 0,
      "source": 1
    },
    {
      "sampler": 0,
      "source": 2
    }
  ]
}
